# xmcd
#
# Track frame offsets:
#	150
#	22069
#	47579
#	66306
#	91537
#	112100
#	134899
#	152010
#	172182
#	190163
#	215296
#	236213
#
# Disc length: 3477 seconds
#
# Revision: 0
# Processed by: cddbd v1.5.2PL0 Copyright (c) Steve Scherf et al.
# Submitted via: EZCDAudioConverter 2.2.2.1
#
DISCID=af0d930c
DTITLE=齊峰 - 我的根在草原
DYEAR=1900
DGENRE=
TTITLE0=我的根在草原
TTITLE1=夢中的母親
TTITLE2=酒歌 (激情篇)
TTITLE3=愛在草原
TTITLE4=泡泡雨
TTITLE5=阿爸 (深情篇)
TTITLE6=浪漫草原
TTITLE7=草原我生命的依托
TTITLE8=心中的故鄉
TTITLE9=戀 (思念篇)
TTITLE10=蒼龍白鹿
TTITLE11=只有在我家鄉
EXTD=
EXTT0=
EXTT1=
EXTT2=
EXTT3=
EXTT4=
EXTT5=
EXTT6=
EXTT7=
EXTT8=
EXTT9=
EXTT10=
EXTT11=
PLAYORDER=
